<?xml version="1.0" standalone="no"?><!DOCTYPE svg PUBLIC "-//W3C//DTD SVG 1.1//EN" "http://www.w3.org/Graphics/SVG/1.1/DTD/svg11.dtd"><svg t="1630055278849" class="icon" viewBox="0 0 1024 1024" version="1.1" xmlns="http://www.w3.org/2000/svg" p-id="9079" xmlns:xlink="http://www.w3.org/1999/xlink" width="32" height="32"><defs><style type="text/css"></style></defs><path d="M106.24 179.2c-60.16 26.88-80.64 69.12-56.32 113.92 17.92 32 93.44 72.96 165.12 89.6 42.24 8.96 49.92 7.68 44.8-7.68-3.84-10.24-14.08-15.36-23.04-11.52-8.96 2.56-20.48 2.56-25.6-2.56-5.12-5.12-12.8-8.96-16.64-8.96-19.2-1.28-87.04-43.52-110.08-69.12-20.48-23.04-21.76-29.44-6.4-47.36 20.48-24.32 89.6-56.32 122.88-56.32 32 0 3.84 24.32-51.2 43.52C115.2 234.24 106.24 241.92 115.2 256c16.64 26.88 261.12 32 377.6 7.68l89.6-17.92-194.56 6.4c-203.52 7.68-232.96 0-151.04-38.4 24.32-11.52 44.8-29.44 44.8-40.96 0-28.16-108.8-24.32-175.36 6.4zM588.8 270.08c0 6.4 6.4 8.96 12.8 5.12 7.68-3.84 12.8-10.24 12.8-14.08 0-2.56-5.12-5.12-12.8-5.12-6.4 0-12.8 6.4-12.8 14.08zM647.68 272.64c3.84 12.8 11.52 19.2 15.36 15.36 3.84-3.84 0-14.08-8.96-23.04-12.8-11.52-14.08-10.24-6.4 7.68z" p-id="9080" fill="#C54DAA"></path></svg>