<?xml version="1.0" standalone="no"?><!DOCTYPE svg PUBLIC "-//W3C//DTD SVG 1.1//EN" "http://www.w3.org/Graphics/SVG/1.1/DTD/svg11.dtd"><svg t="1645776098901" class="icon" viewBox="0 0 1024 1024" version="1.1" xmlns="http://www.w3.org/2000/svg" p-id="6095" width="25" height="25" xmlns:xlink="http://www.w3.org/1999/xlink"><defs><style type="text/css"></style></defs><path d="M511.3 958.2c-246.7 0-447.5-200.7-447.5-447.5 0-179.8 106.9-341.4 272.3-411.9 8.8-3.8 19 0.3 22.7 9.1 3.8 8.8-0.3 19-9.1 22.7-152.6 65-251.2 214.2-251.2 380 0 227.6 185.2 412.8 412.8 412.8s412.8-185.2 412.8-412.8c0-210.2-159.2-386.8-366-410.2l74.1 382c1.8 9.4-4.3 18.5-13.7 20.3-9.4 1.8-18.5-4.3-20.3-13.7L519.8 84.8c-1-5.1 0.3-10.3 3.6-14.3 3.3-4 8.2-6.3 13.4-6.3h3.4c235.2 15.6 418.6 211.7 418.6 446.5 0 246.8-200.8 447.5-447.5 447.5z" p-id="6096" fill="#ffffff"></path><path d="M511.3 633.7c-67.5 0-122.5-54.9-122.5-122.5s54.9-122.5 122.5-122.5c67.5 0 122.5 54.9 122.5 122.5s-55 122.5-122.5 122.5z m0-210.3c-48.4 0-87.8 39.4-87.8 87.8s39.4 87.8 87.8 87.8 87.8-39.4 87.8-87.8-39.4-87.8-87.8-87.8z" p-id="6097" fill="#ffffff"></path></svg>