<?xml version="1.0" standalone="no"?><!DOCTYPE svg PUBLIC "-//W3C//DTD SVG 1.1//EN" "http://www.w3.org/Graphics/SVG/1.1/DTD/svg11.dtd"><svg t="1645776276566" class="icon" viewBox="0 0 1024 1024" version="1.1" xmlns="http://www.w3.org/2000/svg" p-id="7284" width="25" height="25" xmlns:xlink="http://www.w3.org/1999/xlink"><defs><style type="text/css"></style></defs><path d="M511.4 959.7c-247.1 0-448.2-201.1-448.2-448.2 0-180.1 107-342 272.7-412.5 8.8-3.8 19 0.4 22.8 9.2 3.8 8.8-0.4 19-9.2 22.8C196.6 196 97.9 345.4 97.9 511.5c0 228 185.5 413.5 413.5 413.5s413.5-185.5 413.5-413.5c0-210.5-159.5-387.4-366.5-410.8l74.2 382.5c1.8 9.4-4.3 18.5-13.7 20.3-9.4 1.8-18.5-4.3-20.3-13.7L519.9 85c-1-5.1 0.4-10.3 3.6-14.3 3.3-4 8.2-6.3 13.4-6.3h3.4c235.6 15.6 419.2 212 419.2 447.2 0 247.1-201 448.1-448.1 448.1z" fill="#ffffff" p-id="7285"></path><path d="M511.4 634.7c-67.6 0-122.7-55-122.7-122.7s55-122.7 122.7-122.7c67.6 0 122.7 55 122.7 122.7S579 634.7 511.4 634.7z m0-210.6c-48.5 0-88 39.5-88 88s39.5 88 88 88 87.9-39.5 87.9-88-39.5-88-87.9-88z" fill="#ffffff" p-id="7286"></path><path d="M744.9 762.9c-4.4 0-8.9-1.7-12.3-5.1l-467-467c-6.8-6.8-6.8-17.8 0-24.5 6.8-6.8 17.8-6.8 24.5 0l467 467c6.8 6.8 6.8 17.8 0 24.5-3.4 3.4-7.8 5.1-12.2 5.1z" fill="#ffffff" p-id="7287"></path></svg>