<?xml version="1.0" standalone="no"?><!DOCTYPE svg PUBLIC "-//W3C//DTD SVG 1.1//EN" "http://www.w3.org/Graphics/SVG/1.1/DTD/svg11.dtd"><svg t="1630055288982" class="icon" viewBox="0 0 1024 1024" version="1.1" xmlns="http://www.w3.org/2000/svg" p-id="9943" xmlns:xlink="http://www.w3.org/1999/xlink" width="32" height="32"><defs><style type="text/css"></style></defs><path d="M587.1616 580.3008s18.3296-27.3408 37.7856-80.9984c19.456-53.5552 22.2208-83.1488 22.2208-83.1488l-153.9072-1.3312v-52.5312l186.4704-1.3312v-37.1712H493.2608v-84.6848h-91.3408v84.6848H227.9424v37.1712l173.8752-1.3312v56.4224H262.3488v29.5936h287.232s-3.1744 23.9616-14.1312 53.5552c-10.9568 29.7984-22.3232 55.808-22.3232 55.808s-134.9632-47.104-206.1312-47.104c-71.0656 0-157.4912 28.5696-165.888 111.3088-8.2944 82.8416 40.2432 127.6928 108.7488 144.2816 68.5056 16.5888 131.6864-0.2048 186.7776-27.136 55.0912-26.9312 109.056-88.1664 109.056-88.1664l285.4912 138.6496s17.92-27.0336 30.8224-52.3264c12.9024-25.088 23.6544-53.8624 23.6544-53.8624l-298.496-100.352zM292.4544 718.1312c-100.7616 0-121.856-49.4592-121.856-84.992s20.992-74.24 106.5984-79.872c85.7088-5.5296 201.4208 60.7232 201.4208 60.7232S393.216 718.1312 292.4544 718.1312z" p-id="9944" fill="#C54DAA"></path></svg>